<svg width="512" height="512" viewBox="0 0 512 512" fill="none" xmlns="http://www.w3.org/2000/svg" xmlns:xlink="http://www.w3.org/1999/xlink" class=""><rect id="r9" width="512" height="512" x="0" y="0" rx="128" fill="url(#ra)" stroke="#FFFFFF" stroke-width="0" stroke-opacity="100%" paint-order="stroke"></rect><clipPath id="clip"><use xlink:href="#r9"></use></clipPath><defs><linearGradient id="ra" gradientUnits="userSpaceOnUse" gradientTransform="rotate(45)" style="transform-origin: center center;"><stop stop-color="#FF7DB4"></stop><stop offset="1" stop-color="#654EA3"></stop></linearGradient><radialGradient id="rb" cx="0" cy="0" r="1" gradientUnits="userSpaceOnUse" gradientTransform="translate(256) rotate(90) scale(512)"><stop stop-color="white"></stop><stop offset="1" stop-color="white" stop-opacity="0"></stop></radialGradient></defs><svg width="352" height="352" viewBox="0 0 28 27" fill="none" xmlns="http://www.w3.org/2000/svg" x="80" y="80" alignment-baseline="middle" style="color: rgb(255, 255, 255);">
<path d="M26 13.3913H22.9809C22.4488 13.3925 21.931 13.2193 21.5067 12.8983C21.0824 12.5774 20.7749 12.1262 20.6313 11.6139L17.7704 1.43655C17.752 1.37333 17.7135 1.3178 17.6609 1.27829C17.6082 1.23878 17.5441 1.21742 17.4782 1.21742C17.4124 1.21742 17.3483 1.23878 17.2956 1.27829C17.243 1.3178 17.2045 1.37333 17.1861 1.43655L10.4661 25.3461C10.4476 25.4093 10.4092 25.4649 10.3565 25.5044C10.3038 25.5439 10.2398 25.5652 10.1739 25.5652C10.108 25.5652 10.044 25.5439 9.99129 25.5044C9.93861 25.4649 9.90016 25.4093 9.88173 25.3461L7.02086 15.1687C6.87777 14.6585 6.5721 14.2088 6.15026 13.888C5.72841 13.5672 5.21342 13.3929 4.68346 13.3913H1.65216" stroke="white" stroke-width="2" stroke-linecap="round" stroke-linejoin="round"></path>
<path d="M2.07143 4.64286H2.60714V5.17857H2.07143V4.64286ZM1.53571 4.64286H2.07143V5.17857H1.53571V4.64286ZM1.53571 5.17857H2.07143V5.71429H1.53571V5.17857ZM2.07143 5.17857H2.60714V5.71429H2.07143V5.17857ZM2.60714 5.17857H3.14286V5.71429H2.60714V5.17857ZM2.60714 4.64286H3.14286V5.17857H2.60714V4.64286ZM3.14286 4.64286H3.67857V5.17857H3.14286V4.64286ZM3.67857 4.64286H4.21429V5.17857H3.67857V4.64286ZM3.67857 5.17857H4.21429V5.71429H3.67857V5.17857ZM3.14286 5.17857H3.67857V5.71429H3.14286V5.17857ZM3.14286 5.71429H3.67857V6.25H3.14286V5.71429ZM3.67857 5.71429H4.21429V6.25H3.67857V5.71429ZM4.21429 5.17857H4.75V5.71429H4.21429V5.17857ZM4.21429 5.71429H4.75V6.25H4.21429V5.71429ZM4.21429 6.25H4.75V6.78571H4.21429V6.25ZM4.21429 6.78571H4.75V7.32143H4.21429V6.78571ZM4.21429 7.32143H4.75V7.85714H4.21429V7.32143ZM4.21429 7.85714H4.75V8.39286H4.21429V7.85714ZM4.21429 8.39286H4.75V8.92857H4.21429V8.39286ZM4.21429 8.92857H4.75V9.46429H4.21429V8.92857ZM3.67857 8.92857H4.21429V9.46429H3.67857V8.92857ZM3.67857 8.39286H4.21429V8.92857H3.67857V8.39286ZM3.67857 7.85714H4.21429V8.39286H3.67857V7.85714ZM3.67857 7.32143H4.21429V7.85714H3.67857V7.32143ZM3.67857 6.78571H4.21429V7.32143H3.67857V6.78571ZM3.67857 6.25H4.21429V6.78571H3.67857V6.25ZM3.14286 8.39286H3.67857V8.92857H3.14286V8.39286ZM3.14286 8.92857H3.67857V9.46429H3.14286V8.92857ZM3.67857 9.46429H4.21429V10H3.67857V9.46429ZM3.14286 9.46429H3.67857V10H3.14286V9.46429ZM2.60714 9.46429H3.14286V10H2.60714V9.46429ZM2.60714 8.92857H3.14286V9.46429H2.60714V8.92857ZM2.07143 9.46429H2.60714V10H2.07143V9.46429ZM1.53571 9.46429H2.07143V10H1.53571V9.46429ZM1.53571 8.92857H2.07143V9.46429H1.53571V8.92857ZM2.07143 8.92857H2.60714V9.46429H2.07143V8.92857ZM1.53571 8.39286H2.07143V8.92857H1.53571V8.39286ZM1 8.92857H1.53571V9.46429H1V8.92857ZM1 8.39286H1.53571V8.92857H1V8.39286ZM1 7.85714H1.53571V8.39286H1V7.85714ZM1 7.32143H1.53571V7.85714H1V7.32143ZM1 6.78571H1.53571V7.32143H1V6.78571ZM1 6.25H1.53571V6.78571H1V6.25ZM1 5.71429H1.53571V6.25H1V5.71429ZM1.53571 5.71429H2.07143V6.25H1.53571V5.71429ZM1 5.17857H1.53571V5.71429H1V5.17857ZM1.53571 6.25H2.07143V6.78571H1.53571V6.25ZM1.53571 6.78571H2.07143V7.32143H1.53571V6.78571ZM1.53571 7.32143H2.07143V7.85714H1.53571V7.32143ZM1.53571 7.85714H2.07143V8.39286H1.53571V7.85714ZM1 9.46429H1.53571V10H1V9.46429ZM1 4.64286H1.53571V5.17857H1V4.64286ZM5.28711 4.64286H5.82282V5.17857H5.28711V4.64286ZM5.82282 4.64286H6.35854V5.17857H5.82282V4.64286ZM5.82282 5.17857H6.35854V5.71429H5.82282V5.17857ZM5.82282 5.71429H6.35854V6.25H5.82282V5.71429ZM5.82282 6.25H6.35854V6.78571H5.82282V6.25ZM5.28711 6.25H5.82282V6.78571H5.28711V6.25ZM5.28711 5.71429H5.82282V6.25H5.28711V5.71429ZM5.28711 5.17857H5.82282V5.71429H5.28711V5.17857ZM5.28711 6.78571H5.82282V7.32143H5.28711V6.78571ZM5.28711 7.32143H5.82282V7.85714H5.28711V7.32143ZM5.28711 7.85714H5.82282V8.39286H5.28711V7.85714ZM5.82282 7.32143H6.35854V7.85714H5.82282V7.32143ZM5.82282 6.78571H6.35854V7.32143H5.82282V6.78571ZM5.82282 7.85714H6.35854V8.39286H5.82282V7.85714ZM5.82282 8.39286H6.35854V8.92857H5.82282V8.39286ZM5.28711 8.92857H5.82282V9.46429H5.28711V8.92857ZM5.28711 8.39286H5.82282V8.92857H5.28711V8.39286ZM5.28711 9.46429H5.82282V10H5.28711V9.46429ZM5.82282 9.46429H6.35854V10H5.82282V9.46429ZM5.82282 8.92857H6.35854V9.46429H5.82282V8.92857ZM6.35854 9.46429H6.89425V10H6.35854V9.46429ZM6.89425 9.46429H7.42997V10H6.89425V9.46429ZM7.42997 9.46429H7.96568V10H7.42997V9.46429ZM7.42997 8.92857H7.96568V9.46429H7.42997V8.92857ZM6.89425 8.92857H7.42997V9.46429H6.89425V8.92857ZM6.35854 8.92857H6.89425V9.46429H6.35854V8.92857ZM6.35854 4.64286H6.89425V5.17857H6.35854V4.64286ZM6.89425 4.64286H7.42997V5.17857H6.89425V4.64286ZM7.42997 4.64286H7.96568V5.17857H7.42997V4.64286ZM7.96568 4.64286H8.5014V5.17857H7.96568V4.64286ZM7.42997 5.17857H7.96568V5.71429H7.42997V5.17857ZM6.89425 5.17857H7.42997V5.71429H6.89425V5.17857ZM6.35854 5.17857H6.89425V5.71429H6.35854V5.17857ZM6.35854 7.32143H6.89425V7.85714H6.35854V7.32143ZM6.89425 6.78571H7.42997V7.32143H6.89425V6.78571ZM6.35854 6.78571H6.89425V7.32143H6.35854V6.78571ZM6.89425 7.32143H7.42997V7.85714H6.89425V7.32143ZM7.96568 5.17857H8.5014V5.71429H7.96568V5.17857ZM7.96568 8.92857H8.5014V9.46429H7.96568V8.92857ZM7.96568 9.46429H8.5014V10H7.96568V9.46429ZM7.42997 6.78571H7.96568V7.32143H7.42997V6.78571ZM7.42997 7.32143H7.96568V7.85714H7.42997V7.32143ZM10.6443 9.46429H11.18V10H10.6443V9.46429ZM10.6443 8.92857H11.18V9.46429H10.6443V8.92857ZM10.6443 8.39286H11.18V8.92857H10.6443V8.39286ZM10.1085 8.92857H10.6443V9.46429H10.1085V8.92857ZM10.1085 8.39286H10.6443V8.92857H10.1085V8.39286ZM10.1085 7.85714H10.6443V8.39286H10.1085V7.85714ZM9.57282 8.39286H10.1085V8.92857H9.57282V8.39286ZM9.57282 7.85714H10.1085V8.39286H9.57282V7.85714ZM11.18 8.39286H11.7157V8.92857H11.18V8.39286ZM11.18 8.92857H11.7157V9.46429H11.18V8.92857ZM11.18 7.85714H11.7157V8.39286H11.18V7.85714ZM11.7157 7.85714H12.2514V8.39286H11.7157V7.85714ZM11.7157 8.39286H12.2514V8.92857H11.7157V8.39286ZM12.2514 7.85714H12.7871V8.39286H12.2514V7.85714ZM9.03711 7.85714H9.57282V8.39286H9.03711V7.85714ZM11.7157 4.64286H12.2514V5.17857H11.7157V4.64286ZM12.2514 4.64286H12.7871V5.17857H12.2514V4.64286ZM12.2514 5.17857H12.7871V5.71429H12.2514V5.17857ZM12.2514 5.71429H12.7871V6.25H12.2514V5.71429ZM12.2514 6.25H12.7871V6.78571H12.2514V6.25ZM12.2514 6.78571H12.7871V7.32143H12.2514V6.78571ZM11.7157 6.78571H12.2514V7.32143H11.7157V6.78571ZM11.7157 7.32143H12.2514V7.85714H11.7157V7.32143ZM11.7157 6.25H12.2514V6.78571H11.7157V6.25ZM11.7157 5.71429H12.2514V6.25H11.7157V5.71429ZM11.7157 5.17857H12.2514V5.71429H11.7157V5.17857ZM12.2514 7.32143H12.7871V7.85714H12.2514V7.32143ZM9.57282 7.32143H10.1085V7.85714H9.57282V7.32143ZM9.03711 7.32143H9.57282V7.85714H9.03711V7.32143ZM9.03711 6.78571H9.57282V7.32143H9.03711V6.78571ZM9.57282 6.78571H10.1085V7.32143H9.57282V6.78571ZM9.57282 6.25H10.1085V6.78571H9.57282V6.25ZM9.03711 6.25H9.57282V6.78571H9.03711V6.25ZM9.03711 5.71429H9.57282V6.25H9.03711V5.71429ZM9.57282 5.71429H10.1085V6.25H9.57282V5.71429ZM9.03711 4.64286H9.57282V5.17857H9.03711V4.64286ZM9.57282 4.64286H10.1085V5.17857H9.57282V4.64286ZM9.57282 5.17857H10.1085V5.71429H9.57282V5.17857ZM9.03711 5.17857H9.57282V5.71429H9.03711V5.17857Z" fill="white"></path>
<path d="M19.0714 16.6429H19.6071V17.1786H19.0714V16.6429ZM18.5357 16.6429H19.0714V17.1786H18.5357V16.6429ZM18.5357 17.1786H19.0714V17.7143H18.5357V17.1786ZM19.0714 17.1786H19.6071V17.7143H19.0714V17.1786ZM19.6071 17.1786H20.1429V17.7143H19.6071V17.1786ZM19.6071 16.6429H20.1429V17.1786H19.6071V16.6429ZM20.1429 16.6429H20.6786V17.1786H20.1429V16.6429ZM20.6786 16.6429H21.2143V17.1786H20.6786V16.6429ZM20.6786 17.1786H21.2143V17.7143H20.6786V17.1786ZM20.1429 17.1786H20.6786V17.7143H20.1429V17.1786ZM20.6786 17.7143H21.2143V18.25H20.6786V17.7143ZM21.2143 17.1786H21.75V17.7143H21.2143V17.1786ZM21.2143 17.7143H21.75V18.25H21.2143V17.7143ZM21.2143 20.3929H21.75V20.9286H21.2143V20.3929ZM21.2143 20.9286H21.75V21.4643H21.2143V20.9286ZM20.6786 20.9286H21.2143V21.4643H20.6786V20.9286ZM20.6786 20.3929H21.2143V20.9286H20.6786V20.3929ZM20.1429 20.9286H20.6786V21.4643H20.1429V20.9286ZM20.6786 21.4643H21.2143V22H20.6786V21.4643ZM20.1429 21.4643H20.6786V22H20.1429V21.4643ZM19.6071 21.4643H20.1429V22H19.6071V21.4643ZM19.6071 20.9286H20.1429V21.4643H19.6071V20.9286ZM19.0714 21.4643H19.6071V22H19.0714V21.4643ZM18.5357 21.4643H19.0714V22H18.5357V21.4643ZM18.5357 20.9286H19.0714V21.4643H18.5357V20.9286ZM19.0714 20.9286H19.6071V21.4643H19.0714V20.9286ZM19.0714 20.3929H19.6071V20.9286H19.0714V20.3929ZM18.5357 20.3929H19.0714V20.9286H18.5357V20.3929ZM18 20.9286H18.5357V21.4643H18V20.9286ZM18 20.3929H18.5357V20.9286H18V20.3929ZM18 19.8571H18.5357V20.3929H18V19.8571ZM18 19.3214H18.5357V19.8571H18V19.3214ZM18 18.7857H18.5357V19.3214H18V18.7857ZM18 18.25H18.5357V18.7857H18V18.25ZM18 17.7143H18.5357V18.25H18V17.7143ZM18.5357 17.7143H19.0714V18.25H18.5357V17.7143ZM18 17.1786H18.5357V17.7143H18V17.1786ZM19.0714 17.7143H19.6071V18.25H19.0714V17.7143ZM18.5357 18.25H19.0714V18.7857H18.5357V18.25ZM18.5357 18.7857H19.0714V19.3214H18.5357V18.7857ZM18.5357 19.3214H19.0714V19.8571H18.5357V19.3214ZM18.5357 19.8571H19.0714V20.3929H18.5357V19.8571ZM22.2871 16.6429H22.8228V17.1786H22.2871V16.6429ZM22.8228 16.6429H23.3585V17.1786H22.8228V16.6429ZM22.8228 17.1786H23.3585V17.7143H22.8228V17.1786ZM22.8228 17.7143H23.3585V18.25H22.8228V17.7143ZM22.8228 18.25H23.3585V18.7857H22.8228V18.25ZM22.2871 18.25H22.8228V18.7857H22.2871V18.25ZM22.2871 17.7143H22.8228V18.25H22.2871V17.7143ZM22.2871 17.1786H22.8228V17.7143H22.2871V17.1786ZM22.2871 18.7857H22.8228V19.3214H22.2871V18.7857ZM22.2871 19.3214H22.8228V19.8571H22.2871V19.3214ZM22.2871 19.8571H22.8228V20.3929H22.2871V19.8571ZM22.8228 19.3214H23.3585V19.8571H22.8228V19.3214ZM22.8228 18.7857H23.3585V19.3214H22.8228V18.7857ZM22.8228 19.8571H23.3585V20.3929H22.8228V19.8571ZM22.8228 20.3929H23.3585V20.9286H22.8228V20.3929ZM22.2871 20.9286H22.8228V21.4643H22.2871V20.9286ZM22.2871 20.3929H22.8228V20.9286H22.2871V20.3929ZM22.2871 21.4643H22.8228V22H22.2871V21.4643ZM22.8228 21.4643H23.3585V22H22.8228V21.4643ZM22.8228 20.9286H23.3585V21.4643H22.8228V20.9286ZM23.3585 21.4643H23.8943V22H23.3585V21.4643ZM23.8943 21.4643H24.43V22H23.8943V21.4643ZM24.43 21.4643H24.9657V22H24.43V21.4643ZM24.43 20.9286H24.9657V21.4643H24.43V20.9286ZM23.8943 20.9286H24.43V21.4643H23.8943V20.9286ZM23.3585 20.9286H23.8943V21.4643H23.3585V20.9286ZM25.5 21.4643H26.0357V22H25.5V21.4643ZM26.0357 21.4643H26.5714V22H26.0357V21.4643ZM26.0357 20.9286H26.5714V21.4643H26.0357V20.9286ZM26.0357 20.3929H26.5714V20.9286H26.0357V20.3929ZM26.0357 19.8571H26.5714V20.3929H26.0357V19.8571ZM26.0357 19.3214H26.5714V19.8571H26.0357V19.3214ZM26.0357 18.7857H26.5714V19.3214H26.0357V18.7857ZM25.5 18.7857H26.0357V19.3214H25.5V18.7857ZM25.5 19.3214H26.0357V19.8571H25.5V19.3214ZM25.5 19.8571H26.0357V20.3929H25.5V19.8571ZM25.5 20.3929H26.0357V20.9286H25.5V20.3929ZM25.5 20.9286H26.0357V21.4643H25.5V20.9286ZM25.5 18.25H26.0357V18.7857H25.5V18.25ZM26.0357 18.25H26.5714V18.7857H26.0357V18.25ZM26.0357 17.7143H26.5714V18.25H26.0357V17.7143ZM26.0357 17.1786H26.5714V17.7143H26.0357V17.1786ZM26.0357 16.6429H26.5714V17.1786H26.0357V16.6429ZM25.5 16.6429H26.0357V17.1786H25.5V16.6429ZM25.5 17.1786H26.0357V17.7143H25.5V17.1786ZM25.5 17.7143H26.0357V18.25H25.5V17.7143Z" fill="white"></path>
</svg>
</svg>